ISO-10303-21;
HEADER;
/* Generated by software containing ST-Developer
 * from STEP Tools, Inc. (www.steptools.com) 
 */
/* OPTION: using custom renumber hook */

FILE_DESCRIPTION(
/* description */ ('STEP AP242 Edition 2',
'CAx-IF Rec.Pracs.---Representation and Presentation of Product Manufa
cturing Information (PMI)---4.0---2014-10-13',
'CAx-IF Rec.Pracs.---3D Tessellated Geometry---0.4---2014-09-14','2;1',
'CAx-IF Rec.Pracs.---User Defined Attributes---1.5---2016-08-15'),
/* implementation_level */ '2;1');

FILE_NAME(
/* name */ 'Part Studio 1 - Handrest',
/* time_stamp */ '2026-08-06T02:40:33Z',
/* author */ (''),
/* organization */ (''),
/* preprocessor_version */ 'ST-DEVELOPER v20',
/* originating_system */ 'ONSHAPE BY PTC INC, 1.218',
/* authorisation */ '  ');

FILE_SCHEMA (('AP242_MANAGED_MODEL_BASED_3D_ENGINEERING_MIM_LF { 1 0 10303 442 3 1 4 }'));
ENDSEC;

DATA;
#10=SHAPE_REPRESENTATION_RELATIONSHIP('','',#232,#11);
#11=ADVANCED_BREP_SHAPE_REPRESENTATION('',(#230),#452);
#12=(
BOUNDED_SURFACE()
B_SPLINE_SURFACE(3,2,((#390,#391,#392),(#393,#394,#395),(#396,#397,#398),
(#399,#400,#401)),.UNSPECIFIED.,.F.,.F.,.F.)
B_SPLINE_SURFACE_WITH_KNOTS((4,4),(3,3),(-1.36175792864179E-16,0.0238983616603482),
(0.,1.),.PIECEWISE_BEZIER_KNOTS.)
GEOMETRIC_REPRESENTATION_ITEM()
RATIONAL_B_SPLINE_SURFACE(((1.,0.70710678118654,1.),(1.,0.70710678118654,
1.),(1.,0.707106781186548,1.),(1.,0.707106781186548,1.)))
REPRESENTATION_ITEM('')
SURFACE()
);
#13=(
BOUNDED_SURFACE()
B_SPLINE_SURFACE(3,2,((#403,#404,#405),(#406,#407,#408),(#409,#410,#411),
(#412,#413,#414)),.UNSPECIFIED.,.F.,.F.,.F.)
B_SPLINE_SURFACE_WITH_KNOTS((4,4),(3,3),(-1.36175792864179E-16,0.0238983616603482),
(0.,1.),.PIECEWISE_BEZIER_KNOTS.)
GEOMETRIC_REPRESENTATION_ITEM()
RATIONAL_B_SPLINE_SURFACE(((1.,0.707106781186548,1.),(1.,0.707106781186548,
1.),(1.,0.707106781186548,1.),(1.,0.707106781186548,1.)))
REPRESENTATION_ITEM('')
SURFACE()
);
#14=(
BOUNDED_SURFACE()
B_SPLINE_SURFACE(3,2,((#416,#417,#418),(#419,#420,#421),(#422,#423,#424),
(#425,#426,#427)),.UNSPECIFIED.,.F.,.F.,.F.)
B_SPLINE_SURFACE_WITH_KNOTS((4,4),(3,3),(1.35308431126191E-16,0.0424471035999169),
(0.,1.),.PIECEWISE_BEZIER_KNOTS.)
GEOMETRIC_REPRESENTATION_ITEM()
RATIONAL_B_SPLINE_SURFACE(((1.,0.707106781186548,1.),(1.,0.707106781186548,
1.),(1.,0.707106781186548,1.),(1.,0.707106781186548,1.)))
REPRESENTATION_ITEM('')
SURFACE()
);
#15=(
BOUNDED_SURFACE()
B_SPLINE_SURFACE(3,2,((#433,#434,#435),(#436,#437,#438),(#439,#440,#441),
(#442,#443,#444)),.UNSPECIFIED.,.F.,.F.,.F.)
B_SPLINE_SURFACE_WITH_KNOTS((4,4),(3,3),(1.35308431126191E-16,0.0424471035999169),
(0.,1.),.PIECEWISE_BEZIER_KNOTS.)
GEOMETRIC_REPRESENTATION_ITEM()
RATIONAL_B_SPLINE_SURFACE(((1.,0.707106781186548,1.),(1.,0.707106781186548,
1.),(1.,0.707106781186548,1.),(1.,0.707106781186548,1.)))
REPRESENTATION_ITEM('')
SURFACE()
);
#16=CYLINDRICAL_SURFACE('',#241,0.00127);
#17=CYLINDRICAL_SURFACE('',#244,0.00127);
#18=CIRCLE('',#238,0.00127);
#19=CIRCLE('',#240,0.00127);
#20=CIRCLE('',#242,0.00127);
#21=CIRCLE('',#243,0.00127);
#22=B_SPLINE_SURFACE_WITH_KNOTS('',3,1,((#302,#303),(#304,#305),(#306,#307),
(#308,#309)),.SURF_OF_LINEAR_EXTRUSION.,.F.,.F.,.F.,(4,4),(2,2),(0.524428503377141,
0.82778263210243),(0.,1.),.PIECEWISE_BEZIER_KNOTS.);
#23=B_SPLINE_SURFACE_WITH_KNOTS('',3,1,((#324,#325),(#326,#327),(#328,#329),
(#330,#331)),.SURF_OF_LINEAR_EXTRUSION.,.F.,.F.,.F.,(4,4),(2,2),(0.0172604210430999,
0.524428503377141),(0.,1.),.PIECEWISE_BEZIER_KNOTS.);
#24=B_SPLINE_CURVE_WITH_KNOTS('',3,(#287,#288,#289,#290),.UNSPECIFIED.,
 .F.,.F.,(4,4),(0.,0.000277244538168755),.UNSPECIFIED.);
#25=B_SPLINE_CURVE_WITH_KNOTS('',3,(#294,#295,#296,#297),.UNSPECIFIED.,
 .F.,.F.,(4,4),(0.,0.000277244538168755),.UNSPECIFIED.);
#26=B_SPLINE_CURVE_WITH_KNOTS('',3,(#313,#314,#315,#316),.UNSPECIFIED.,
 .F.,.F.,(4,4),(0.,0.0225133953494648),.UNSPECIFIED.);
#27=B_SPLINE_CURVE_WITH_KNOTS('',3,(#320,#321,#322,#323),.UNSPECIFIED.,
 .F.,.F.,(4,4),(0.,0.0225129649558247),.UNSPECIFIED.);
#28=B_SPLINE_CURVE_WITH_KNOTS('',3,(#332,#333,#334,#335),.UNSPECIFIED.,
 .F.,.F.,(4,4),(0.,0.0409866973122545),.UNSPECIFIED.);
#29=B_SPLINE_CURVE_WITH_KNOTS('',3,(#339,#340,#341,#342),.UNSPECIFIED.,
 .F.,.F.,(4,4),(0.,0.0409885883700075),.UNSPECIFIED.);
#30=B_SPLINE_CURVE_WITH_KNOTS('',3,(#358,#359,#360,#361),.UNSPECIFIED.,
 .F.,.F.,(4,4),(9.05122961576739E-6,0.0422049274109413),.UNSPECIFIED.);
#31=B_SPLINE_CURVE_WITH_KNOTS('',3,(#363,#364,#365,#366),.UNSPECIFIED.,
 .F.,.F.,(4,4),(0.,0.0237558199039754),.UNSPECIFIED.);
#32=B_SPLINE_CURVE_WITH_KNOTS('',3,(#368,#369,#370,#371),.UNSPECIFIED.,
 .F.,.F.,(4,4),(0.,0.0421939385795014),.UNSPECIFIED.);
#33=B_SPLINE_CURVE_WITH_KNOTS('',3,(#375,#376,#377,#378),.UNSPECIFIED.,
 .F.,.F.,(4,4),(0.,0.0237562125651356),.UNSPECIFIED.);
#34=B_SPLINE_CURVE_WITH_KNOTS('',3,(#380,#381,#382,#383,#384),
 .UNSPECIFIED.,.F.,.F.,(4,1,4),(0.,0.00107151500693696,0.00214303001387393),
 .UNSPECIFIED.);
#35=B_SPLINE_CURVE_WITH_KNOTS('',3,(#385,#386,#387,#388,#389),
 .UNSPECIFIED.,.F.,.F.,(4,1,4),(0.,0.00107151500693697,0.00214303001387395),
 .UNSPECIFIED.);
#36=B_SPLINE_CURVE_WITH_KNOTS('',3,(#428,#429,#430,#431,#432),
 .UNSPECIFIED.,.F.,.F.,(4,1,4),(2.0304417714389E-17,0.00120823752473759,
0.00241647504947516),.UNSPECIFIED.);
#37=B_SPLINE_CURVE_WITH_KNOTS('',3,(#445,#446,#447,#448,#449),
 .UNSPECIFIED.,.F.,.F.,(4,1,4),(0.,0.00120823752473761,0.00241647504947522),
 .UNSPECIFIED.);
#38=ORIENTED_EDGE('',*,*,#100,.F.);
#39=ORIENTED_EDGE('',*,*,#101,.T.);
#40=ORIENTED_EDGE('',*,*,#102,.T.);
#41=ORIENTED_EDGE('',*,*,#103,.T.);
#42=ORIENTED_EDGE('',*,*,#104,.T.);
#43=ORIENTED_EDGE('',*,*,#105,.F.);
#44=ORIENTED_EDGE('',*,*,#106,.T.);
#45=ORIENTED_EDGE('',*,*,#107,.T.);
#46=ORIENTED_EDGE('',*,*,#108,.T.);
#47=ORIENTED_EDGE('',*,*,#109,.T.);
#48=ORIENTED_EDGE('',*,*,#108,.F.);
#49=ORIENTED_EDGE('',*,*,#110,.T.);
#50=ORIENTED_EDGE('',*,*,#111,.T.);
#51=ORIENTED_EDGE('',*,*,#112,.T.);
#52=ORIENTED_EDGE('',*,*,#113,.T.);
#53=ORIENTED_EDGE('',*,*,#114,.T.);
#54=ORIENTED_EDGE('',*,*,#115,.F.);
#55=ORIENTED_EDGE('',*,*,#116,.T.);
#56=ORIENTED_EDGE('',*,*,#117,.T.);
#57=ORIENTED_EDGE('',*,*,#116,.F.);
#58=ORIENTED_EDGE('',*,*,#118,.F.);
#59=ORIENTED_EDGE('',*,*,#105,.T.);
#60=ORIENTED_EDGE('',*,*,#115,.T.);
#61=ORIENTED_EDGE('',*,*,#119,.T.);
#62=ORIENTED_EDGE('',*,*,#120,.T.);
#63=ORIENTED_EDGE('',*,*,#121,.T.);
#64=ORIENTED_EDGE('',*,*,#100,.T.);
#65=ORIENTED_EDGE('',*,*,#118,.T.);
#66=ORIENTED_EDGE('',*,*,#122,.T.);
#67=ORIENTED_EDGE('',*,*,#123,.T.);
#68=ORIENTED_EDGE('',*,*,#113,.F.);
#69=ORIENTED_EDGE('',*,*,#117,.F.);
#70=ORIENTED_EDGE('',*,*,#104,.F.);
#71=ORIENTED_EDGE('',*,*,#124,.T.);
#72=ORIENTED_EDGE('',*,*,#125,.F.);
#73=ORIENTED_EDGE('',*,*,#102,.F.);
#74=ORIENTED_EDGE('',*,*,#126,.F.);
#75=ORIENTED_EDGE('',*,*,#106,.F.);
#76=ORIENTED_EDGE('',*,*,#101,.F.);
#77=ORIENTED_EDGE('',*,*,#121,.F.);
#78=ORIENTED_EDGE('',*,*,#127,.F.);
#79=ORIENTED_EDGE('',*,*,#107,.F.);
#80=ORIENTED_EDGE('',*,*,#126,.T.);
#81=ORIENTED_EDGE('',*,*,#125,.T.);
#82=ORIENTED_EDGE('',*,*,#109,.F.);
#83=ORIENTED_EDGE('',*,*,#128,.F.);
#84=ORIENTED_EDGE('',*,*,#124,.F.);
#85=ORIENTED_EDGE('',*,*,#103,.F.);
#86=ORIENTED_EDGE('',*,*,#127,.T.);
#87=ORIENTED_EDGE('',*,*,#120,.F.);
#88=ORIENTED_EDGE('',*,*,#129,.F.);
#89=ORIENTED_EDGE('',*,*,#110,.F.);
#90=ORIENTED_EDGE('',*,*,#128,.T.);
#91=ORIENTED_EDGE('',*,*,#112,.F.);
#92=ORIENTED_EDGE('',*,*,#130,.F.);
#93=ORIENTED_EDGE('',*,*,#122,.F.);
#94=ORIENTED_EDGE('',*,*,#119,.F.);
#95=ORIENTED_EDGE('',*,*,#114,.F.);
#96=ORIENTED_EDGE('',*,*,#123,.F.);
#97=ORIENTED_EDGE('',*,*,#130,.T.);
#98=ORIENTED_EDGE('',*,*,#111,.F.);
#99=ORIENTED_EDGE('',*,*,#129,.T.);
#100=EDGE_CURVE('',#131,#132,#151,.T.);
#101=EDGE_CURVE('',#131,#133,#24,.T.);
#102=EDGE_CURVE('',#133,#134,#152,.T.);
#103=EDGE_CURVE('',#134,#135,#25,.T.);
#104=EDGE_CURVE('',#135,#136,#153,.T.);
#105=EDGE_CURVE('',#132,#136,#154,.T.);
#106=EDGE_CURVE('',#137,#138,#155,.F.);
#107=EDGE_CURVE('',#138,#139,#26,.T.);
#108=EDGE_CURVE('',#139,#140,#156,.T.);
#109=EDGE_CURVE('',#140,#137,#27,.T.);
#110=EDGE_CURVE('',#139,#141,#28,.T.);
#111=EDGE_CURVE('',#141,#142,#157,.T.);
#112=EDGE_CURVE('',#142,#140,#29,.T.);
#113=EDGE_CURVE('',#143,#144,#158,.T.);
#114=EDGE_CURVE('',#144,#145,#159,.F.);
#115=EDGE_CURVE('',#146,#145,#160,.T.);
#116=EDGE_CURVE('',#146,#143,#161,.T.);
#117=EDGE_CURVE('',#136,#143,#162,.T.);
#118=EDGE_CURVE('',#132,#146,#163,.T.);
#119=EDGE_CURVE('',#145,#147,#18,.F.);
#120=EDGE_CURVE('',#147,#148,#30,.T.);
#121=EDGE_CURVE('',#148,#131,#31,.T.);
#122=EDGE_CURVE('',#149,#150,#32,.T.);
#123=EDGE_CURVE('',#150,#144,#19,.T.);
#124=EDGE_CURVE('',#135,#149,#33,.T.);
#125=EDGE_CURVE('',#134,#137,#34,.T.);
#126=EDGE_CURVE('',#138,#133,#35,.F.);
#127=EDGE_CURVE('',#139,#148,#20,.T.);
#128=EDGE_CURVE('',#149,#140,#21,.T.);
#129=EDGE_CURVE('',#141,#147,#36,.F.);
#130=EDGE_CURVE('',#150,#142,#37,.T.);
#131=VERTEX_POINT('',#285);
#132=VERTEX_POINT('',#286);
#133=VERTEX_POINT('',#291);
#134=VERTEX_POINT('',#293);
#135=VERTEX_POINT('',#298);
#136=VERTEX_POINT('',#300);
#137=VERTEX_POINT('',#311);
#138=VERTEX_POINT('',#312);
#139=VERTEX_POINT('',#317);
#140=VERTEX_POINT('',#319);
#141=VERTEX_POINT('',#336);
#142=VERTEX_POINT('',#338);
#143=VERTEX_POINT('',#345);
#144=VERTEX_POINT('',#346);
#145=VERTEX_POINT('',#348);
#146=VERTEX_POINT('',#350);
#147=VERTEX_POINT('',#357);
#148=VERTEX_POINT('',#362);
#149=VERTEX_POINT('',#372);
#150=VERTEX_POINT('',#373);
#151=LINE('',#284,#164);
#152=LINE('',#292,#165);
#153=LINE('',#299,#166);
#154=LINE('',#301,#167);
#155=LINE('',#310,#168);
#156=LINE('',#318,#169);
#157=LINE('',#337,#170);
#158=LINE('',#344,#171);
#159=LINE('',#347,#172);
#160=LINE('',#349,#173);
#161=LINE('',#351,#174);
#162=LINE('',#353,#175);
#163=LINE('',#354,#176);
#164=VECTOR('',#249,1.);
#165=VECTOR('',#250,1.);
#166=VECTOR('',#251,1.);
#167=VECTOR('',#252,1.);
#168=VECTOR('',#253,1.);
#169=VECTOR('',#254,1.);
#170=VECTOR('',#255,1.);
#171=VECTOR('',#258,1.);
#172=VECTOR('',#259,1.);
#173=VECTOR('',#260,1.);
#174=VECTOR('',#261,1.);
#175=VECTOR('',#264,1.);
#176=VECTOR('',#265,1.);
#177=EDGE_LOOP('',(#38,#39,#40,#41,#42,#43));
#178=EDGE_LOOP('',(#44,#45,#46,#47));
#179=EDGE_LOOP('',(#48,#49,#50,#51));
#180=EDGE_LOOP('',(#52,#53,#54,#55));
#181=EDGE_LOOP('',(#56,#57,#58,#59));
#182=EDGE_LOOP('',(#60,#61,#62,#63,#64,#65));
#183=EDGE_LOOP('',(#66,#67,#68,#69,#70,#71));
#184=EDGE_LOOP('',(#72,#73,#74,#75));
#185=EDGE_LOOP('',(#76,#77,#78,#79,#80));
#186=EDGE_LOOP('',(#81,#82,#83,#84,#85));
#187=EDGE_LOOP('',(#86,#87,#88,#89));
#188=EDGE_LOOP('',(#90,#91,#92,#93));
#189=EDGE_LOOP('',(#94,#95,#96,#97,#98,#99));
#190=FACE_BOUND('',#177,.T.);
#191=FACE_BOUND('',#178,.T.);
#192=FACE_BOUND('',#179,.T.);
#193=FACE_BOUND('',#180,.T.);
#194=FACE_BOUND('',#181,.T.);
#195=FACE_BOUND('',#182,.T.);
#196=FACE_BOUND('',#183,.T.);
#197=FACE_BOUND('',#184,.T.);
#198=FACE_BOUND('',#185,.T.);
#199=FACE_BOUND('',#186,.T.);
#200=FACE_BOUND('',#187,.T.);
#201=FACE_BOUND('',#188,.T.);
#202=FACE_BOUND('',#189,.T.);
#203=PLANE('',#234);
#204=PLANE('',#235);
#205=PLANE('',#236);
#206=PLANE('',#237);
#207=PLANE('',#239);
#208=ADVANCED_FACE('',(#190),#203,.F.);
#209=ADVANCED_FACE('',(#191),#22,.F.);
#210=ADVANCED_FACE('',(#192),#23,.F.);
#211=ADVANCED_FACE('',(#193),#204,.F.);
#212=ADVANCED_FACE('',(#194),#205,.F.);
#213=ADVANCED_FACE('',(#195),#206,.F.);
#214=ADVANCED_FACE('',(#196),#207,.T.);
#215=ADVANCED_FACE('',(#197),#16,.T.);
#216=ADVANCED_FACE('',(#198),#12,.T.);
#217=ADVANCED_FACE('',(#199),#13,.T.);
#218=ADVANCED_FACE('',(#200),#14,.T.);
#219=ADVANCED_FACE('',(#201),#15,.T.);
#220=ADVANCED_FACE('',(#202),#17,.T.);
#221=CLOSED_SHELL('',(#208,#209,#210,#211,#212,#213,#214,#215,#216,#217,
#218,#219,#220));
#222=STYLED_ITEM('',(#223),#230);
#223=PRESENTATION_STYLE_ASSIGNMENT((#224));
#224=SURFACE_STYLE_USAGE(.BOTH.,#225);
#225=SURFACE_SIDE_STYLE('',(#226));
#226=SURFACE_STYLE_FILL_AREA(#227);
#227=FILL_AREA_STYLE('',(#228));
#228=FILL_AREA_STYLE_COLOUR('',#229);
#229=COLOUR_RGB('',0.647058823529412,0.647058823529412,0.647058823529412);
#230=MANIFOLD_SOLID_BREP('Handrest',#221);
#231=SHAPE_DEFINITION_REPRESENTATION(#457,#232);
#232=SHAPE_REPRESENTATION('Handrest',(#233),#452);
#233=AXIS2_PLACEMENT_3D('',#282,#245,#246);
#234=AXIS2_PLACEMENT_3D('',#283,#247,#248);
#235=AXIS2_PLACEMENT_3D('',#343,#256,#257);
#236=AXIS2_PLACEMENT_3D('',#352,#262,#263);
#237=AXIS2_PLACEMENT_3D('',#355,#266,#267);
#238=AXIS2_PLACEMENT_3D('',#356,#268,#269);
#239=AXIS2_PLACEMENT_3D('',#367,#270,#271);
#240=AXIS2_PLACEMENT_3D('',#374,#272,#273);
#241=AXIS2_PLACEMENT_3D('',#379,#274,#275);
#242=AXIS2_PLACEMENT_3D('',#402,#276,#277);
#243=AXIS2_PLACEMENT_3D('',#415,#278,#279);
#244=AXIS2_PLACEMENT_3D('',#450,#280,#281);
#245=DIRECTION('',(0.,0.,1.));
#246=DIRECTION('',(1.,0.,0.));
#247=DIRECTION('',(0.,1.,0.));
#248=DIRECTION('',(0.,0.,1.));
#249=DIRECTION('',(0.,0.,-1.));
#250=DIRECTION('',(-1.,0.,0.));
#251=DIRECTION('',(0.,0.,-1.));
#252=DIRECTION('',(-1.,0.,0.));
#253=DIRECTION('',(-1.,0.,0.));
#254=DIRECTION('',(-1.,0.,0.));
#255=DIRECTION('',(-1.,0.,0.));
#256=DIRECTION('',(0.,-1.,0.));
#257=DIRECTION('',(0.,0.,-1.));
#258=DIRECTION('',(0.,0.,1.));
#259=DIRECTION('',(-1.,0.,0.));
#260=DIRECTION('',(0.,0.,1.));
#261=DIRECTION('',(-1.,0.,0.));
#262=DIRECTION('',(0.,0.,1.));
#263=DIRECTION('',(1.,0.,0.));
#264=DIRECTION('',(0.,1.,0.));
#265=DIRECTION('',(0.,1.,0.));
#266=DIRECTION('',(-1.,0.,0.));
#267=DIRECTION('',(0.,-1.,0.));
#268=DIRECTION('',(-1.,0.,0.));
#269=DIRECTION('',(0.,0.,1.));
#270=DIRECTION('',(-1.,0.,0.));
#271=DIRECTION('',(0.,-1.,0.));
#272=DIRECTION('',(-1.,0.,0.));
#273=DIRECTION('',(0.,0.,1.));
#274=DIRECTION('',(-1.,0.,0.));
#275=DIRECTION('',(0.,0.,1.));
#276=DIRECTION('',(1.12307230984805E-14,0.985847204776762,0.167646320668976));
#277=DIRECTION('',(0.,-0.167646320668976,0.985847204776762));
#278=DIRECTION('',(0.,0.985847204776764,0.167646320668965));
#279=DIRECTION('',(0.,-0.167646320668965,0.985847204776764));
#280=DIRECTION('',(-1.,0.,0.));
#281=DIRECTION('',(0.,0.,1.));
#282=CARTESIAN_POINT('',(0.,0.,0.));
#283=CARTESIAN_POINT('',(0.175895,-0.124050982147394,0.000923084821050523));
#284=CARTESIAN_POINT('',(0.175895,-0.124050982147394,0.000923084821050523));
#285=CARTESIAN_POINT('',(0.175895,-0.124050982147394,0.00115745960447108));
#286=CARTESIAN_POINT('',(0.175895,-0.124050982147394,0.));
#287=CARTESIAN_POINT('',(0.175895,-0.124050982147394,0.00115745960447108));
#288=CARTESIAN_POINT('',(0.175895,-0.124050982147394,0.00125038097729405));
#289=CARTESIAN_POINT('',(0.175885373687362,-0.124050982147394,0.00134229309823667));
#290=CARTESIAN_POINT('',(0.17586609128877,-0.124050982147394,0.00143319284577407));
#291=CARTESIAN_POINT('',(0.17586609128877,-0.124050982147394,0.00143319284577407));
#292=CARTESIAN_POINT('',(0.175895,-0.124050982147394,0.00143319284577407));
#293=CARTESIAN_POINT('',(-0.17586609128877,-0.124050982147394,0.00143319284577407));
#294=CARTESIAN_POINT('',(-0.17586609128877,-0.124050982147394,0.00143319284577407));
#295=CARTESIAN_POINT('',(-0.175885373687362,-0.124050982147394,0.00134229309823667));
#296=CARTESIAN_POINT('',(-0.175895,-0.124050982147394,0.00125038097729405));
#297=CARTESIAN_POINT('',(-0.175895,-0.124050982147394,0.00115745960447108));
#298=CARTESIAN_POINT('',(-0.175895,-0.124050982147394,0.00115745960447108));
#299=CARTESIAN_POINT('',(-0.175895,-0.124050982147394,0.000923084821050523));
#300=CARTESIAN_POINT('',(-0.175895,-0.124050982147394,0.));
#301=CARTESIAN_POINT('',(0.175895,-0.124050982147394,0.));
#302=CARTESIAN_POINT('',(0.174625,-0.10095870719348,0.00700511786568288));
#303=CARTESIAN_POINT('',(-0.174625,-0.10095870719348,0.00700511786568288));
#304=CARTESIAN_POINT('',(0.174625,-0.108622913049389,0.00570179631000242));
#305=CARTESIAN_POINT('',(-0.174625,-0.108622913049389,0.00570179631000242));
#306=CARTESIAN_POINT('',(0.174625,-0.115905366499923,0.0042203776102132));
#307=CARTESIAN_POINT('',(-0.174625,-0.115905366499923,0.0042203776102132));
#308=CARTESIAN_POINT('',(0.174625,-0.123049577026082,0.00267446509276191));
#309=CARTESIAN_POINT('',(-0.174625,-0.123049577026082,0.00267446509276191));
#310=CARTESIAN_POINT('',(-0.174625,-0.123049577018662,0.00267446509436765));
#311=CARTESIAN_POINT('',(-0.174625,-0.123049577018662,0.00267446509436765));
#312=CARTESIAN_POINT('',(0.174625,-0.123049577018662,0.00267446509436765));
#313=CARTESIAN_POINT('',(0.174625,-0.123049577018662,0.00267446509436765));
#314=CARTESIAN_POINT('',(0.174625,-0.115714840088024,0.00426160500181665));
#315=CARTESIAN_POINT('',(0.174625,-0.108357048248333,0.00574700742940967));
#316=CARTESIAN_POINT('',(0.174625,-0.10095870719348,0.00700511786568288));
#317=CARTESIAN_POINT('',(0.174625,-0.10095870719348,0.00700511786568288));
#318=CARTESIAN_POINT('',(0.175895,-0.10095870719348,0.00700511786568288));
#319=CARTESIAN_POINT('',(-0.174625,-0.10095870719348,0.00700511786568288));
#320=CARTESIAN_POINT('',(-0.174625,-0.10095870719348,0.00700511786568288));
#321=CARTESIAN_POINT('',(-0.174625,-0.108357048248333,0.00574700742940967));
#322=CARTESIAN_POINT('',(-0.174625,-0.11571484008801,0.0042616050017525));
#323=CARTESIAN_POINT('',(-0.174625,-0.123049577018662,0.00267446509436766));
#324=CARTESIAN_POINT('',(0.174625,-0.0603488592701287,0.012530064806257));
#325=CARTESIAN_POINT('',(-0.174625,-0.0603488592701287,0.012530064806257));
#326=CARTESIAN_POINT('',(0.174625,-0.0742645725515781,0.0108652742996866));
#327=CARTESIAN_POINT('',(-0.174625,-0.0742645725515781,0.0108652742996866));
#328=CARTESIAN_POINT('',(0.174625,-0.0881451661257327,0.00918409956217723));
#329=CARTESIAN_POINT('',(-0.174625,-0.0881451661257327,0.00918409956217723));
#330=CARTESIAN_POINT('',(0.174625,-0.10095870719348,0.00700511786568288));
#331=CARTESIAN_POINT('',(-0.174625,-0.10095870719348,0.00700511786568288));
#332=CARTESIAN_POINT('',(0.174625,-0.10095870719348,0.00700511786568288));
#333=CARTESIAN_POINT('',(0.174625,-0.0874887529044047,0.00929572463030229));
#334=CARTESIAN_POINT('',(0.174625,-0.0739149908048193,0.0109070961137398));
#335=CARTESIAN_POINT('',(0.174625,-0.060348859270071,0.0125300648062639));
#336=CARTESIAN_POINT('',(0.174625,-0.060348859270071,0.0125300648062639));
#337=CARTESIAN_POINT('',(0.174625,-0.060348859270071,0.0125300648062639));
#338=CARTESIAN_POINT('',(-0.174625,-0.060348859270071,0.0125300648062639));
#339=CARTESIAN_POINT('',(-0.174625,-0.060348859270071,0.0125300648062639));
#340=CARTESIAN_POINT('',(-0.174625,-0.0739149908048193,0.0109070961137398));
#341=CARTESIAN_POINT('',(-0.174625,-0.0874887529044047,0.00929572463030229));
#342=CARTESIAN_POINT('',(-0.174625,-0.10095870719348,0.00700511786568288));
#343=CARTESIAN_POINT('',(0.175895,-0.058928,0.00635));
#344=CARTESIAN_POINT('',(-0.175895,-0.058928,0.00635));
#345=CARTESIAN_POINT('',(-0.175895,-0.058928,0.));
#346=CARTESIAN_POINT('',(-0.175895,-0.058928,0.0112690566854995));
#347=CARTESIAN_POINT('',(0.175895,-0.058928,0.0112690566854995));
#348=CARTESIAN_POINT('',(0.175895,-0.058928,0.0112690566854995));
#349=CARTESIAN_POINT('',(0.175895,-0.058928,0.00635));
#350=CARTESIAN_POINT('',(0.175895,-0.058928,0.));
#351=CARTESIAN_POINT('',(0.175895,-0.058928,0.));
#352=CARTESIAN_POINT('',(0.175895,-0.0914894910736969,0.));
#353=CARTESIAN_POINT('',(-0.175895,-0.0914894910736969,0.));
#354=CARTESIAN_POINT('',(0.175895,-0.0914894910736969,0.));
#355=CARTESIAN_POINT('',(0.175895,-0.039624,0.00635));
#356=CARTESIAN_POINT('',(0.175895,-0.060198,0.0112690566854995));
#357=CARTESIAN_POINT('',(0.175895,-0.0589369872003297,0.0114198768402122));
#358=CARTESIAN_POINT('',(0.175895,-0.0589369872003297,0.0114198768402122));
#359=CARTESIAN_POINT('',(0.175895,-0.0729027799469631,0.00974978929805067));
#360=CARTESIAN_POINT('',(0.175895,-0.0868790913763772,0.00811116734564965));
#361=CARTESIAN_POINT('',(0.175895,-0.10074579636623,0.0057530919156164));
#362=CARTESIAN_POINT('',(0.175895,-0.10074579636623,0.00575309191561639));
#363=CARTESIAN_POINT('',(0.175895,-0.10074579636623,0.00575309191561639));
#364=CARTESIAN_POINT('',(0.175895,-0.108552571649036,0.00442552599453806));
#365=CARTESIAN_POINT('',(0.175895,-0.116313238789278,0.00284099026073554));
#366=CARTESIAN_POINT('',(0.175895,-0.124050982147394,0.00115745960447108));
#367=CARTESIAN_POINT('',(-0.175895,-0.039624,0.00635));
#368=CARTESIAN_POINT('',(-0.175895,-0.10074579636623,0.0057530919156164));
#369=CARTESIAN_POINT('',(-0.175895,-0.0868790913763772,0.00811116734564965));
#370=CARTESIAN_POINT('',(-0.175895,-0.0729027799469631,0.00974978929805066));
#371=CARTESIAN_POINT('',(-0.175895,-0.0589369872003297,0.0114198768402122));
#372=CARTESIAN_POINT('',(-0.175895,-0.10074579636623,0.00575309191561639));
#373=CARTESIAN_POINT('',(-0.175895,-0.0589369872003297,0.0114198768402122));
#374=CARTESIAN_POINT('',(-0.175895,-0.060198,0.0112690566854995));
#375=CARTESIAN_POINT('',(-0.175895,-0.124050982147394,0.00115745960447108));
#376=CARTESIAN_POINT('',(-0.175895,-0.116313238789278,0.00284099026073554));
#377=CARTESIAN_POINT('',(-0.175895,-0.108552571649036,0.00442552599453806));
#378=CARTESIAN_POINT('',(-0.175895,-0.10074579636623,0.00575309191561639));
#379=CARTESIAN_POINT('',(0.,-0.122780982147394,0.00143319284577407));
#380=CARTESIAN_POINT('',(-0.17586609128877,-0.124050982147394,0.00143319284577407));
#381=CARTESIAN_POINT('',(-0.175790581641371,-0.124050982147394,0.00178915519416989));
#382=CARTESIAN_POINT('',(-0.175385175141558,-0.123763099086272,0.00237488976113984));
#383=CARTESIAN_POINT('',(-0.174877466364764,-0.123296513098891,0.0026210313978069));
#384=CARTESIAN_POINT('',(-0.174625,-0.123049577018662,0.00267446509436765));
#385=CARTESIAN_POINT('',(0.17586609128877,-0.124050982147394,0.00143319284577407));
#386=CARTESIAN_POINT('',(0.175790581641371,-0.124050982147394,0.00178915519416989));
#387=CARTESIAN_POINT('',(0.175385175141567,-0.123763099086264,0.00237488976114166));
#388=CARTESIAN_POINT('',(0.174877466364746,-0.123296513098908,0.00262103139780325));
#389=CARTESIAN_POINT('',(0.174625,-0.123049577018662,0.00267446509436765));
#390=CARTESIAN_POINT('',(0.174625,-0.10095870719348,0.00700511786568288));
#391=CARTESIAN_POINT('',(0.175895,-0.10095870719348,0.00700511786568291));
#392=CARTESIAN_POINT('',(0.175895,-0.10074579636623,0.0057530919156164));
#393=CARTESIAN_POINT('',(0.174625000000332,-0.108838772007553,0.00566508883652752));
#394=CARTESIAN_POINT('',(0.175895000025407,-0.108838772022091,0.0056650888370507));
#395=CARTESIAN_POINT('',(0.175895,-0.108599414547837,0.00441756021678116));
#396=CARTESIAN_POINT('',(0.174625,-0.1166761088994,0.00406175151740462));
#397=CARTESIAN_POINT('',(0.175895000002814,-0.11667610890163,0.00406175151740991));
#398=CARTESIAN_POINT('',(0.175895,-0.116406106938028,0.00282078457955344));
#399=CARTESIAN_POINT('',(0.174625,-0.124460263211767,0.00236812305088051));
#400=CARTESIAN_POINT('',(0.175895,-0.124460263211767,0.00236812305088051));
#401=CARTESIAN_POINT('',(0.175895,-0.124190261250394,0.00112715611302332));
#402=CARTESIAN_POINT('',(0.174625,-0.10074579636623,0.0057530919156164));
#403=CARTESIAN_POINT('',(-0.175895,-0.10074579636623,0.0057530919156164));
#404=CARTESIAN_POINT('',(-0.175895,-0.10095870719348,0.00700511786568288));
#405=CARTESIAN_POINT('',(-0.174625,-0.10095870719348,0.00700511786568288));
#406=CARTESIAN_POINT('',(-0.175895,-0.108599414547837,0.00441756021678116));
#407=CARTESIAN_POINT('',(-0.175895000002189,-0.108838772008957,0.00566508883646438));
#408=CARTESIAN_POINT('',(-0.174625,-0.108838772007553,0.00566508883652752));
#409=CARTESIAN_POINT('',(-0.175895,-0.116406106938028,0.00282078457955344));
#410=CARTESIAN_POINT('',(-0.175895000002814,-0.11667610890163,0.00406175151740991));
#411=CARTESIAN_POINT('',(-0.174625,-0.1166761088994,0.00406175151740462));
#412=CARTESIAN_POINT('',(-0.175895,-0.124190261250394,0.00112715611302332));
#413=CARTESIAN_POINT('',(-0.175895,-0.124460263211767,0.00236812305088051));
#414=CARTESIAN_POINT('',(-0.174625,-0.124460263211767,0.00236812305088051));
#415=CARTESIAN_POINT('',(-0.174625,-0.10074579636623,0.00575309191561639));
#416=CARTESIAN_POINT('',(0.175895,-0.10074579636623,0.0057530919156164));
#417=CARTESIAN_POINT('',(0.175895,-0.10095870719348,0.00700511786568288));
#418=CARTESIAN_POINT('',(0.174625,-0.10095870719348,0.00700511786568288));
#419=CARTESIAN_POINT('',(0.175895,-0.0867958906895287,0.00812531587532531));
#420=CARTESIAN_POINT('',(0.175895000000833,-0.0869618259680411,0.00938533016075454));
#421=CARTESIAN_POINT('',(0.174625,-0.0869618259673733,0.00938533016128796));
#422=CARTESIAN_POINT('',(0.175895,-0.0727351889142156,0.00976983934741926));
#423=CARTESIAN_POINT('',(0.175894999997917,-0.072885985598006,0.011030854953832));
#424=CARTESIAN_POINT('',(0.174625,-0.0728859855988555,0.0110308549539197));
#425=CARTESIAN_POINT('',(0.175895,-0.0586856029626713,0.0114499382860561));
#426=CARTESIAN_POINT('',(0.175895,-0.0588363996473186,0.012710953892581));
#427=CARTESIAN_POINT('',(0.174625,-0.0588363996473186,0.012710953892581));
#428=CARTESIAN_POINT('',(0.175895,-0.0589369872003297,0.0114198768402122));
#429=CARTESIAN_POINT('',(0.175895,-0.058985656406193,0.0118268018407887));
#430=CARTESIAN_POINT('',(0.175485887491075,-0.0594739737084081,0.0124646393479908));
#431=CARTESIAN_POINT('',(0.174909778330233,-0.060066084790307,0.0125638942090326));
#432=CARTESIAN_POINT('',(0.174625,-0.060348859270071,0.0125300648062639));
#433=CARTESIAN_POINT('',(-0.174625,-0.10095870719348,0.00700511786568288));
#434=CARTESIAN_POINT('',(-0.175895,-0.10095870719348,0.00700511786568288));
#435=CARTESIAN_POINT('',(-0.175895,-0.10074579636623,0.0057530919156164));
#436=CARTESIAN_POINT('',(-0.174625,-0.0869618259673733,0.00938533016128796));
#437=CARTESIAN_POINT('',(-0.175895000000833,-0.0869618259680411,0.00938533016075454));
#438=CARTESIAN_POINT('',(-0.175895,-0.0867958906895287,0.00812531587532531));
#439=CARTESIAN_POINT('',(-0.174625,-0.0728859855990549,0.0110308549538959));
#440=CARTESIAN_POINT('',(-0.175894999997917,-0.0728859855982837,0.0110308549537626));
#441=CARTESIAN_POINT('',(-0.175895,-0.072735188914412,0.00976983934737017));
#442=CARTESIAN_POINT('',(-0.174625,-0.0588363996473186,0.012710953892581));
#443=CARTESIAN_POINT('',(-0.175895,-0.0588363996473186,0.012710953892581));
#444=CARTESIAN_POINT('',(-0.175895,-0.0586856029626713,0.0114499382860561));
#445=CARTESIAN_POINT('',(-0.175895,-0.0589369872003297,0.0114198768402122));
#446=CARTESIAN_POINT('',(-0.175895,-0.058985656406193,0.0118268018407888));
#447=CARTESIAN_POINT('',(-0.175485887491071,-0.0594739737084038,0.0124646393479912));
#448=CARTESIAN_POINT('',(-0.174909778330241,-0.0600660847903156,0.0125638942090316));
#449=CARTESIAN_POINT('',(-0.174625,-0.0603488592700711,0.0125300648062639));
#450=CARTESIAN_POINT('',(-8.32667268468867E-17,-0.060198,0.0112690566854995));
#451=MECHANICAL_DESIGN_GEOMETRIC_PRESENTATION_REPRESENTATION('',(#222),
#452);
#452=(
GEOMETRIC_REPRESENTATION_CONTEXT(3)
GLOBAL_UNCERTAINTY_ASSIGNED_CONTEXT((#453))
GLOBAL_UNIT_ASSIGNED_CONTEXT((#456,#455,#454))
REPRESENTATION_CONTEXT('Handrest','TOP_LEVEL_ASSEMBLY_PART')
);
#453=UNCERTAINTY_MEASURE_WITH_UNIT(LENGTH_MEASURE(2.E-5),#456,
'DISTANCE_ACCURACY_VALUE','Maximum Tolerance applied to model');
#454=(
NAMED_UNIT(*)
SI_UNIT($,.STERADIAN.)
SOLID_ANGLE_UNIT()
);
#455=(
NAMED_UNIT(*)
PLANE_ANGLE_UNIT()
SI_UNIT($,.RADIAN.)
);
#456=(
LENGTH_UNIT()
NAMED_UNIT(*)
SI_UNIT($,.METRE.)
);
#457=PRODUCT_DEFINITION_SHAPE('','',#458);
#458=PRODUCT_DEFINITION('','',#460,#459);
#459=PRODUCT_DEFINITION_CONTEXT('',#466,'design');
#460=PRODUCT_DEFINITION_FORMATION_WITH_SPECIFIED_SOURCE('','',#462,
 .NOT_KNOWN.);
#461=PRODUCT_RELATED_PRODUCT_CATEGORY('','',(#462));
#462=PRODUCT('Handrest','Handrest','Handrest',(#464));
#463=PRODUCT_CATEGORY('','');
#464=PRODUCT_CONTEXT('',#466,'mechanical');
#465=APPLICATION_PROTOCOL_DEFINITION('international standard',
'ap242_managed_model_based_3d_engineering',2020,#466);
#466=APPLICATION_CONTEXT('managed model based 3d engineering');
ENDSEC;
END-ISO-10303-21;
